<?xml version="1.0" encoding="UTF-8"?>
<svg id="Camada_2" data-name="Camada 2" xmlns="http://www.w3.org/2000/svg" viewBox="0 0 50.48 28.24">
  <defs>
    <style>
      .cls-1 {
        fill: #1e8bb0;
        stroke-width: 0px;
      }
    </style>
  </defs>
  <g id="Camada_1-2" data-name="Camada 1">
    <g>
      <path class="cls-1" d="M30.01,14c0,2.64-2.14,4.77-4.77,4.77-.77,0-1.5-.18-2.15-.51.42-.14.8-.41,1.08-.8.72-1,.49-2.38-.5-3.1-.99-.72-2.38-.49-3.1.5,0,.01-.01.02-.02.03-.06-.29-.08-.59-.08-.9,0-2.63,2.14-4.77,4.77-4.77s4.77,2.14,4.77,4.77Z"/>
      <path class="cls-1" d="M25.18,0C13.91.02,3.85,5.73,0,14.12c3.87,8.42,13.96,14.12,25.24,14.12h.05c11.27-.02,21.33-5.72,25.18-14.12C46.6,5.69,36.48-.02,25.18,0ZM33.39,8.1c.31-.28.68-.52,1.06-.71.7-.34,1.5-.54,2.28-.47.77.07,1.54.43,1.86,1.12.25.72-.02,1.51-.52,2.11-.5.6-1.2,1.03-1.93,1.29-.37.12-.74.21-1.12.25-.38.04-.76.03-1.12-.04-.71-.13-1.3-.5-1.51-1.01-.22-.51-.08-1.19.33-1.79.18-.27.4-.52.65-.74ZM25.24,24.07c-5.56,0-10.06-4.51-10.06-10.07S19.68,3.94,25.24,3.94c2.91,0,5.54,1.24,7.37,3.21-.35.25-.67.55-.94.91-.31.41-.56.88-.68,1.42-.12.54-.1,1.15.13,1.69.23.55.65.99,1.12,1.28.47.3.99.44,1.49.51.52.06,1.03.04,1.53-.06.04.36.06.73.06,1.1,0,5.56-4.51,10.07-10.07,10.07Z"/>
      <path class="cls-1" d="M30.01,14c0,2.64-2.14,4.77-4.77,4.77-.77,0-1.5-.18-2.15-.51.42-.14.8-.41,1.08-.8.72-1,.49-2.38-.5-3.1-.99-.72-2.38-.49-3.1.5,0,.01-.01.02-.02.03-.06-.29-.08-.59-.08-.9,0-2.63,2.14-4.77,4.77-4.77s4.77,2.14,4.77,4.77Z"/>
    </g>
  </g>
</svg>